/* XPM */
static char * close_active_xpm[] = {
"24 24 115 2",
"  	c None",
". 	c #373737",
"+ 	c #2F2F2F",
"@ 	c #333030",
"# 	c #643636",
"$ 	c #BF4646",
"% 	c #EF4F4F",
"& 	c #F45051",
"* 	c #EB4E4E",
"= 	c #B04343",
"- 	c #523333",
"; 	c #323030",
"> 	c #2E2F2F",
", 	c #4E3333",
"' 	c #BE4645",
") 	c #F95252",
"! 	c #F75354",
"~ 	c #F65355",
"{ 	c #F75356",
"] 	c #F65255",
"^ 	c #F75253",
"/ 	c #F85051",
"( 	c #A94342",
"_ 	c #413131",
": 	c #3C3131",
"< 	c #D74949",
"[ 	c #F55153",
"} 	c #F95559",
"| 	c #FB575A",
"1 	c #FB565A",
"2 	c #FB5659",
"3 	c #FB5558",
"4 	c #F85357",
"5 	c #F35152",
"6 	c #BF4545",
"7 	c #302F2F",
"8 	c #272E2E",
"9 	c #C04545",
"0 	c #F45152",
"a 	c #FA5559",
"b 	c #FC565A",
"c 	c #FC5559",
"d 	c #FC575B",
"e 	c #F95458",
"f 	c #F75152",
"g 	c #923E3E",
"h 	c #292E2E",
"i 	c #5C3535",
"j 	c #F65151",
"k 	c #F75355",
"l 	c #393030",
"m 	c #A94242",
"n 	c #F15051",
"o 	c #FB5559",
"p 	c #FC5458",
"q 	c #F25051",
"r 	c #7F3A3A",
"s 	c #CD4A4A",
"t 	c #F45154",
"u 	c #A34342",
"v 	c #CE4A49",
"w 	c #F55355",
"x 	c #FC575A",
"y 	c #F35253",
"z 	c #A34242",
"A 	c #BA4545",
"B 	c #F25153",
"C 	c #8F3E3E",
"D 	c #7D3A3A",
"E 	c #F15050",
"F 	c #FA5458",
"G 	c #FC5357",
"H 	c #F85255",
"I 	c #F35051",
"J 	c #513333",
"K 	c #2D2E2E",
"L 	c #E04C4C",
"M 	c #FA565A",
"N 	c #FB5458",
"O 	c #F75254",
"P 	c #BE4545",
"Q 	c #232D2D",
"R 	c #2C2F2F",
"S 	c #603636",
"T 	c #ED4E4E",
"U 	c #FA5557",
"V 	c #FB575B",
"W 	c #DD4B4B",
"X 	c #483333",
"Y 	c #753939",
"Z 	c #EA4E4E",
"` 	c #F65153",
" .	c #F95356",
"..	c #FA5457",
"+.	c #F05151",
"@.	c #E34C4D",
"#.	c #593434",
"$.	c #C24747",
"%.	c #DD4C4C",
"&.	c #E74E4E",
"*.	c #EA4F4E",
"=.	c #E64E4E",
"-.	c #DB4C4C",
";.	c #B44343",
">.	c #423232",
",.	c #2A2E2E",
"'.	c #2B2F2F",
").	c #292D2D",
"!.	c #513434",
"~.	c #6B3939",
"{.	c #6E3A3A",
"].	c #693838",
"^.	c #483232",
"/.	c #262E2E",
"(.	c #2D2F2F",
". . . . . . . . . . . . . . . . . . . . . . . . ",
"+ + + + + + + + + + + + + + + + + + + + + + + + ",
"+ + + + + + + + + + + + + + + + + + + + + + + + ",
"+ + + + + + + + + + + + + + + + + + + + + + + + ",
"+ + + + + + + + + + + + + + + + + + + + + + + + ",
"+ + + + + + + + @ # $ % & * = - ; > + + + + + + ",
"+ + + + + + > , ' ) ! ~ { ] ^ / ( _ + + + + + + ",
"+ + + + + + : < [ } | 1 1 2 3 4 5 6 7 + + + + + ",
"+ + + + + 8 9 0 a | | b c c d 1 e f g h + + + + ",
"+ + + + + i j k 1 b c c c c c d 1 ~ % l + + + + ",
"+ + + + + m n o b c c p c c c b d o q r + + + + ",
"+ + + + + s t b b c c c c c c b d b 5 u + + + + ",
"+ + + + + v w x x c c c c c c b b b y z + + + + ",
"+ + + + + A B 1 d c c c c p p c c c n C + + + + ",
"+ + + + + D E F d b c p G G c b b H I J + + + + ",
"+ + + + + K L [ M d b N N b b d | O P Q + + + + ",
"+ + + + + R S T [ U | | | | V 2 ~ W X > + + + + ",
"+ + + + + + 7 Y Z n `  .F ..k +.@.i + + + + + + ",
"+ + + + + + + 8 #.$.%.&.*.=.-.;.>.,.+ + + + + + ",
"+ + + + + + + + '.).!.~.{.].^./.(.+ + + + + + + ",
"+ + + + + + + + + + + + + + + + + + + + + + + + ",
"+ + + + + + + + + + + + + + + + + + + + + + + + ",
"+ + + + + + + + + + + + + + + + + + + + + + + + ",
"+ + + + + + + + + + + + + + + + + + + + + + + + "};
