/* XPM */
static char * close_inactive_xpm[] = {
"24 24 54 1",
" 	g None",
".	g #373737",
"+	g #2F2F2F",
"@	g #313131",
"#	g #404040",
"$	g #606060",
"%	g #717171",
"&	g #737373",
"*	g #6F6F6F",
"=	g #5A5A5A",
"-	g #3A3A3A",
";	g #303030",
">	g #393939",
",	g #5F5F5F",
"'	g #767676",
")	g #757575",
"!	g #747474",
"~	g #595959",
"{	g #343434",
"]	g #333333",
"^	g #676767",
"/	g #787878",
"(	g #7A7A7A",
"_	g #797979",
":	g #2D2D2D",
"<	g #777777",
"[	g #505050",
"}	g #3D3D3D",
"|	g #323232",
"1	g #585858",
"2	g #727272",
"3	g #494949",
"4	g #666666",
"5	g #575757",
"6	g #5E5E5E",
"7	g #4F4F4F",
"8	g #484848",
"9	g #2E2E2E",
"0	g #6B6B6B",
"a	g #2B2B2B",
"b	g #3F3F3F",
"c	g #707070",
"d	g #6A6A6A",
"e	g #464646",
"f	g #6C6C6C",
"g	g #3C3C3C",
"h	g #616161",
"i	g #6E6E6E",
"j	g #5B5B5B",
"k	g #353535",
"l	g #2C2C2C",
"m	g #444444",
"n	g #454545",
"o	g #424242",
"........................",
"++++++++++++++++++++++++",
"++++++++++++++++++++++++",
"++++++++++++++++++++++++",
"++++++++++++++++++++++++",
"++++++++@#$%&*=-;+++++++",
"+++++++>,''''))!~{++++++",
"++++++]^!/(____'!,++++++",
"+++++:,!/(((__(_<![:++++",
"+++++}!'_(_____(_'%|++++",
"+++++12_(__/___((_&3++++",
"+++++4!((______(((!5++++",
"+++++4'((______(((!5++++",
"+++++6&_(____//___27++++",
"+++++82/((_/<<_(('&>++++",
"+++++90!_((//((((),a++++",
"+++++9bc!/(((((_'d.+++++",
"+++++++e*2!<//'&f}++++++",
"+++++++:gh0*cidjk:++++++",
"++++++++9l-mno.l++++++++",
"++++++++++++++++++++++++",
"++++++++++++++++++++++++",
"++++++++++++++++++++++++",
"++++++++++++++++++++++++"};
