/* XPM */
static char * close_pressed_xpm[] = {
"24 24 87 1",
" 	c None",
".	c #373737",
"+	c #2F2F2F",
"@	c #303030",
"#	c #313131",
"$	c #323232",
"%	c #333333",
"&	c #2E3333",
"*	c #4A3232",
"=	c #8F2C2D",
"-	c #B82A2B",
";	c #CC2829",
">	c #BA292A",
",	c #473232",
"'	c #2C3333",
")	c #303131",
"!	c #3C3434",
"~	c #8A2D2E",
"{	c #DF2729",
"]	c #ED3034",
"^	c #F13538",
"/	c #F13638",
"(	c #F03437",
"_	c #E92D2F",
":	c #DF2627",
"<	c #8E2D2E",
"[	c #3B3434",
"}	c #2E2F2F",
"|	c #393434",
"1	c #A72B2C",
"2	c #EF2E30",
"3	c #F83B3F",
"4	c #FB3D41",
"5	c #FC3E42",
"6	c #F5393D",
"7	c #E7292B",
"8	c #A32B2B",
"9	c #293434",
"0	c #9F2C2D",
"a	c #EB2D2F",
"b	c #FA3C40",
"c	c #E82A2B",
"d	c #593131",
"e	c #DB2A2B",
"f	c #F93B3F",
"g	c #F5393C",
"h	c #453232",
"i	c #9A2D2E",
"j	c #EC3235",
"k	c #8B2D2D",
"l	c #B62B2D",
"m	c #F63A3D",
"n	c #B9292A",
"o	c #BC2B2C",
"p	c #B52C2D",
"q	c #F83B3E",
"r	c #313030",
"s	c #9C2D2F",
"t	c #F2363A",
"u	c #2F3030",
"v	c #E02C2E",
"w	c #F93C3F",
"x	c #E0282A",
"y	c #2D2F2F",
"z	c #2C3332",
"A	c #9D2D2D",
"B	c #F33437",
"C	c #F23032",
"D	c #2D3232",
"E	c #B62C2E",
"F	c #F43538",
"G	c #FA3D41",
"H	c #EF3032",
"I	c #3B3333",
"J	c #F13639",
"K	c #F73A3D",
"L	c #F73A3E",
"M	c #EC3135",
"N	c #DA2A2B",
"O	c #9E2C2D",
"P	c #383333",
"Q	c #583131",
"R	c #9B2D2F",
"S	c #BC2B2D",
"T	c #B62C2D",
"U	c #992D2E",
"V	c #293333",
"........................",
"++++++++++++++++++++++++",
"++++++++++++++++++++++++",
"+++++++++++@@@++++++++++",
"++++++++@#$%%%$#@+++++++",
"+++++++#&*=-;>=,'#++++++",
"++++++)!~{]^/(_:<[#+++++",
"++++})|12345554678[#++++",
"++++}90ab55555553c<'++++",
"++++@def555555555g:h@+++",
"++++$ij55555555554_k$+++",
"++++$lm55555555555(n$+++",
"++++$o355555555555/;$+++",
"++++$pq55555555555^-$+++",
"++++rst55555555554]=#+++",
"++++udv5555555555wx*@+++",
"++++yzAB555555554C~D++++",
"+++++u%EF555555GH1I@++++",
"++++++@%AvJKLgMNOPu+++++",
"+++++++uzQRpSTUQVu++++++",
"+++++++++@#$$$#@++++++++",
"++++++++++++++++++++++++",
"++++++++++++++++++++++++",
"++++++++++++++++++++++++"};
