/* XPM */
static char * hide_active_xpm[] = {
"24 24 101 2",
"  	c None",
". 	c #373737",
"+ 	c #2F2F2F",
"@ 	c #2F3230",
"# 	c #434A37",
"$ 	c #4D8C4A",
"% 	c #4FB055",
"& 	c #4DB757",
"* 	c #50AD54",
"= 	c #4E7F46",
"- 	c #3C4134",
"; 	c #2F3130",
"> 	c #384134",
", 	c #4D8B4A",
"' 	c #4DBA58",
") 	c #4DB657",
"! 	c #4EB657",
"~ 	c #4DB557",
"{ 	c #4CB757",
"] 	c #51B557",
"^ 	c #467F46",
"/ 	c #353832",
"( 	c #343631",
"_ 	c #529A4F",
": 	c #4DB456",
"< 	c #4FB858",
"[ 	c #4FBC5A",
"} 	c #50BD5A",
"| 	c #4FBB59",
"1 	c #4EB858",
"2 	c #4DB558",
"3 	c #508949",
"4 	c #2D2A2D",
"5 	c #508A4A",
"6 	c #4CB657",
"7 	c #50BE5A",
"8 	c #4EB958",
"9 	c #4EB758",
"0 	c #4DB857",
"a 	c #496B40",
"b 	c #2E2C2E",
"c 	c #404636",
"d 	c #4CB957",
"e 	c #50B055",
"f 	c #363230",
"g 	c #4B7C45",
"h 	c #4CB556",
"i 	c #43603D",
"j 	c #479C4F",
"k 	c #4DB356",
"l 	c #50BB59",
"m 	c #4FB958",
"n 	c #417F47",
"o 	c #489C4F",
"p 	c #4FBA59",
"q 	c #4DB457",
"r 	c #4A8A49",
"s 	c #436D41",
"t 	c #465C3C",
"u 	c #4CB456",
"v 	c #50BC5A",
"w 	c #3F3E33",
"x 	c #332A2D",
"y 	c #50A451",
"z 	c #4CB557",
"A 	c #4CB857",
"B 	c #518748",
"C 	c #2C282D",
"D 	c #2E2D2E",
"E 	c #3B4D38",
"F 	c #52AD54",
"G 	c #4EBA59",
"H 	c #4FBD59",
"I 	c #4FBC59",
"J 	c #51A050",
"K 	c #353E33",
"L 	c #2F2E2F",
"M 	c #43583B",
"N 	c #4FAD54",
"O 	c #4DB658",
"P 	c #4EB658",
"Q 	c #4FA752",
"R 	c #3F4636",
"S 	c #2D2B2E",
"T 	c #3D4535",
"U 	c #4C8F4B",
"V 	c #4BA652",
"W 	c #4CAD54",
"X 	c #4CAE55",
"Y 	c #4CAC54",
"Z 	c #4BA551",
"` 	c #4F8047",
" .	c #353A32",
"..	c #2D2C2E",
"+.	c #30292D",
"@.	c #394335",
"#.	c #3A573B",
"$.	c #395B3C",
"%.	c #3A563A",
"&.	c #393B33",
"*.	c #2D292D",
". . . . . . . . . . . . . . . . . . . . . . . . ",
"+ + + + + + + + + + + + + + + + + + + + + + + + ",
"+ + + + + + + + + + + + + + + + + + + + + + + + ",
"+ + + + + + + + + + + + + + + + + + + + + + + + ",
"+ + + + + + + + + + + + + + + + + + + + + + + + ",
"+ + + + + + + @ # $ % & * = - ; + + + + + + + + ",
"+ + + + + + > , ' ) ! ~ ~ { ] ^ / + + + + + + + ",
"+ + + + + ( _ : < [ } } | 1 2 : 3 + + + + + + + ",
"+ + + + 4 5 6 | 7 7 7 7 7 7 8 9 0 a b + + + + + ",
"+ + + + c d 1 7 7 7 7 7 7 7 7 | ~ e f + + + + + ",
"+ + + + g : | 7 7 7 7 7 7 7 7 } 1 h i + + + + + ",
"+ + + + j k l 7 7 7 7 7 7 7 7 7 m : n + + + + + ",
"+ + + + o k p 7 7 7 7 7 7 7 7 7 p q n + + + + + ",
"+ + + + r k 1 7 7 7 7 7 7 7 7 7 p : s + + + + + ",
"+ + + + t u ) } 7 7 7 7 7 7 7 v & 6 w + + + + + ",
"+ + + + x y z 8 7 7 7 7 7 7 v 9 A B C + + + + + ",
"+ + + + D E F ) G | H } } I 8 & J K L + + + + + ",
"+ + + + + + M N : O 9 9 9 P u Q R + + + + + + + ",
"+ + + + + + S T U V W X Y Z `  ...+ + + + + + + ",
"+ + + + + + + D +.@.#.$.%.&.*.L + + + + + + + + ",
"+ + + + + + + + + + + + + + + + + + + + + + + + ",
"+ + + + + + + + + + + + + + + + + + + + + + + + ",
"+ + + + + + + + + + + + + + + + + + + + + + + + ",
"+ + + + + + + + + + + + + + + + + + + + + + + + "};
