/* XPM */
static char * hide_pressed_xpm[] = {
"24 24 97 2",
"  	c None",
". 	c #373737",
"+ 	c #2F2F2F",
"@ 	c #2F322F",
"# 	c #3F4833",
"$ 	c #41863C",
"% 	c #3DA842",
"& 	c #3AAF43",
"* 	c #3FA441",
"= 	c #427A3A",
"- 	c #384031",
"; 	c #2F312F",
"> 	c #2F2E2F",
", 	c #373E31",
"' 	c #40843C",
") 	c #39B444",
"! 	c #3BB345",
"~ 	c #3CB346",
"{ 	c #3DB547",
"] 	c #3CB446",
"^ 	c #3AB446",
"/ 	c #3EAE43",
"( 	c #3C793A",
"_ 	c #363630",
": 	c #333630",
"< 	c #43933E",
"[ 	c #3BB145",
"} 	c #3DB647",
"| 	c #3DB748",
"1 	c #3CB647",
"2 	c #3BAF44",
"3 	c #44823C",
"4 	c #2F302F",
"5 	c #2E2A2E",
"6 	c #43833C",
"7 	c #39B145",
"8 	c #3DB648",
"9 	c #39B245",
"0 	c #426538",
"a 	c #2E2C2F",
"b 	c #3C4532",
"c 	c #38B144",
"d 	c #3CB447",
"e 	c #3EA942",
"f 	c #35322F",
"g 	c #427539",
"h 	c #3AAF44",
"i 	c #3DB848",
"j 	c #39AE44",
"k 	c #405936",
"l 	c #37953F",
"m 	c #3AAF45",
"n 	c #367A3B",
"o 	c #38943F",
"p 	c #3CB246",
"q 	c #37793B",
"r 	c #3D833C",
"s 	c #3BB045",
"t 	c #3AAE43",
"u 	c #3B6838",
"v 	c #405935",
"w 	c #39AD43",
"x 	c #39AF43",
"y 	c #3D3D31",
"z 	c #332B2E",
"A 	c #409C40",
"B 	c #3AB345",
"C 	c #2D292E",
"D 	c #2E2D2F",
"E 	c #384B33",
"F 	c #41A541",
"G 	c #3BB346",
"H 	c #3BB245",
"I 	c #42983F",
"J 	c #333C31",
"K 	c #302F2F",
"L 	c #3F5334",
"M 	c #3CA541",
"N 	c #3AAD44",
"O 	c #3F9E40",
"P 	c #3D4332",
"Q 	c #2D2B2E",
"R 	c #3B4332",
"S 	c #3F893D",
"T 	c #3A9F40",
"U 	c #3AA743",
"V 	c #3AAA43",
"W 	c #3BA542",
"X 	c #3A9D40",
"Y 	c #457A3B",
"Z 	c #363730",
"` 	c #31292E",
" .	c #364132",
"..	c #355435",
"+.	c #335836",
"@.	c #365234",
"#.	c #383A31",
". . . . . . . . . . . . . . . . . . . . . . . . ",
"+ + + + + + + + + + + + + + + + + + + + + + + + ",
"+ + + + + + + + + + + + + + + + + + + + + + + + ",
"+ + + + + + + + + + + + + + + + + + + + + + + + ",
"+ + + + + + + + + + + + + + + + + + + + + + + + ",
"+ + + + + + + @ # $ % & * = - ; + + + + + + + + ",
"+ + + + + > , ' ) ! ~ { ] ^ / ( _ + + + + + + + ",
"+ + + + + : < [ } | | | | | 1 2 3 4 + + + + + + ",
"+ + + + 5 6 7 | | | | | | | | 8 9 0 a + + + + + ",
"+ + + + b c { | | | | | | | | | d e f + + + + + ",
"+ + + + g h i | | | | | | | | | | j k + + + + + ",
"+ + + + l [ | | | | | | | | | | i m n + + + + + ",
"+ + + + o p | | | | | | | | | | i [ q + + + + + ",
"+ + + + r s i | | | | | | | | | i t u + + + + + ",
"+ + + + v w | | | | | | | | | | { x y + + + + + ",
"+ + + + z A B | | | | | | | | | B 3 C + + + + + ",
"+ + + + D E F G i | | | | | | H I J > + + + + + ",
"+ + + + + K L M m 8 i | i { N O P + + + + + + + ",
"+ + + + + + Q R S T U V W X Y Z D + + + + + + + ",
"+ + + + + + + D `  ...+.@.#.5 > + + + + + + + + ",
"+ + + + + + + + + + + + + + + + + + + + + + + + ",
"+ + + + + + + + + + + + + + + + + + + + + + + + ",
"+ + + + + + + + + + + + + + + + + + + + + + + + ",
"+ + + + + + + + + + + + + + + + + + + + + + + + "};
