/* XPM */
static char * close_prelight_xpm[] = {
"24 24 98 2",
"  	c None",
". 	c #373737",
"+ 	c #2F2F2F",
"@ 	c #373232",
"# 	c #674242",
"$ 	c #AD5C5C",
"% 	c #D37171",
"& 	c #D77575",
"* 	c #CE6E6E",
"= 	c #A35859",
"- 	c #593C3C",
"; 	c #343030",
"> 	c #513939",
", 	c #AF6060",
"' 	c #EB7B7B",
") 	c #F77D7F",
"! 	c #FA7C7E",
"~ 	c #FC7C7E",
"{ 	c #FA7C7F",
"] 	c #F67D7F",
"^ 	c #E67879",
"/ 	c #9F5959",
"( 	c #433434",
"_ 	c #2E2F2F",
": 	c #463636",
"< 	c #C46868",
"[ 	c #F27B7D",
"} 	c #FC7B7E",
"| 	c #FD7B7E",
"1 	c #FB7B7E",
"2 	c #EE7A7B",
"3 	c #AE5E5E",
"4 	c #383131",
"5 	c #2F2E2E",
"6 	c #AC5C5C",
"7 	c #F27C7E",
"8 	c #EE7C7D",
"9 	c #874E4E",
"0 	c #2B2D2D",
"a 	c #5F3E3E",
"b 	c #E57A7A",
"c 	c #F97C7F",
"d 	c #D77272",
"e 	c #413333",
"f 	c #995556",
"g 	c #F07B7D",
"h 	c #FE7B7E",
"i 	c #EA7B7B",
"j 	c #744545",
"k 	c #B36565",
"l 	c #F77C7E",
"m 	c #F37C7D",
"n 	c #915857",
"o 	c #B56767",
"p 	c #F87B7E",
"q 	c #935959",
"r 	c #A65B5B",
"s 	c #F37B7E",
"t 	c #ED7B7C",
"u 	c #824C4C",
"v 	c #754647",
"w 	c #E07777",
"x 	c #543A3A",
"y 	c #362F2F",
"z 	c #C96C6C",
"A 	c #F67C7E",
"B 	c #AA5D5D",
"C 	c #2E2E2E",
"D 	c #2C2E2E",
"E 	c #603F3F",
"F 	c #DE7373",
"G 	c #F87C7E",
"H 	c #F57C7D",
"I 	c #CC6B6B",
"J 	c #4C3838",
"K 	c #2D2E2E",
"L 	c #312F2F",
"M 	c #704444",
"N 	c #DA7474",
"O 	c #EF7C7D",
"P 	c #FA7B7E",
"Q 	c #EE7B7C",
"R 	c #D16F6F",
"S 	c #5B3C3C",
"T 	c #2B2E2E",
"U 	c #573B3B",
"V 	c #B06161",
"W 	c #E37778",
"X 	c #E77879",
"Y 	c #E17677",
"Z 	c #D07171",
"` 	c #A45C5B",
" .	c #443333",
"..	c #4D3737",
"+.	c #654444",
"@.	c #694847",
"#.	c #634242",
"$.	c #463535",
". . . . . . . . . . . . . . . . . . . . . . . . ",
"+ + + + + + + + + + + + + + + + + + + + + + + + ",
"+ + + + + + + + + + + + + + + + + + + + + + + + ",
"+ + + + + + + + + + + + + + + + + + + + + + + + ",
"+ + + + + + + + + + + + + + + + + + + + + + + + ",
"+ + + + + + + + @ # $ % & * = - ; + + + + + + + ",
"+ + + + + + + > , ' ) ! ~ { ] ^ / ( _ + + + + + ",
"+ + + + + _ : < [ } | | | | | 1 2 3 4 + + + + + ",
"+ + + + + 5 6 7 | | | | | | | | } 8 9 0 + + + + ",
"+ + + + + a b 1 | | | | | | | | | c d e + + + + ",
"+ + + + + f g h | | | | | | | | | h i j + + + + ",
"+ + + + + k l h | | | | | | | | | h m n + + + + ",
"+ + + + + o p | | | | | | | | | | h m q + + + + ",
"+ + + + + r s h | | | | | | | | | h t u + + + + ",
"+ + + + + v i | | | | | | | | | | 1 w x + + + + ",
"+ + + + + y z A | | | | | | | | | 7 B C + + + + ",
"+ + + + + D E F G h | | | | | h H I J K + + + + ",
"+ + + + + + L M N O 1 h h h P Q R S + + + + + + ",
"+ + + + + + + T U V % W X Y Z `  .T + + + + + + ",
"+ + + + + + + + D 5 ..+.@.#.$.0 K + + + + + + + ",
"+ + + + + + + + + + + + + + + + + + + + + + + + ",
"+ + + + + + + + + + + + + + + + + + + + + + + + ",
"+ + + + + + + + + + + + + + + + + + + + + + + + ",
"+ + + + + + + + + + + + + + + + + + + + + + + + "};
