/* XPM */
static char * hide_prelight_xpm[] = {
"24 24 115 2",
"  	c None",
". 	c #373737",
"+ 	c #2F2F2F",
"@ 	c #303230",
"# 	c #474B3A",
"$ 	c #5A9256",
"% 	c #61B865",
"& 	c #60BF68",
"* 	c #61B464",
"= 	c #598351",
"- 	c #3E4236",
"; 	c #303130",
"> 	c #3A4236",
", 	c #5A9156",
"' 	c #60C26A",
") 	c #5EBD67",
"! 	c #5FBC67",
"~ 	c #5FBB67",
"{ 	c #5EBB67",
"] 	c #5EBE68",
"^ 	c #64BD68",
"/ 	c #518451",
"( 	c #363A33",
"_ 	c #353632",
": 	c #60A25C",
"< 	c #5FBA66",
"[ 	c #61C269",
"} 	c #61C36A",
"| 	c #5EBC67",
"1 	c #5EBA66",
"2 	c #5D9055",
"3 	c #2F302F",
"4 	c #2D2A2D",
"5 	c #5C8F55",
"6 	c #60BE68",
"7 	c #61C46A",
"8 	c #5DBE66",
"9 	c #5FBF69",
"0 	c #526E48",
"a 	c #2D2B2E",
"b 	c #434839",
"c 	c #5FC169",
"d 	c #5BBD64",
"e 	c #60C469",
"f 	c #5EBC66",
"g 	c #62B866",
"h 	c #363230",
"i 	c #55814F",
"j 	c #5EBB66",
"k 	c #5DC066",
"l 	c #60C069",
"m 	c #5FBD68",
"n 	c #4A6344",
"o 	c #56A35D",
"p 	c #5EB966",
"q 	c #5DC166",
"r 	c #4C8451",
"s 	c #57A35D",
"t 	c #5DB965",
"u 	c #5CC065",
"v 	c #61C369",
"w 	c #4D8451",
"x 	c #568F55",
"y 	c #5DBA66",
"z 	c #59BE62",
"A 	c #5FBE68",
"B 	c #4B7149",
"C 	c #4C5E42",
"D 	c #59BA62",
"E 	c #5FC368",
"F 	c #60C369",
"G 	c #413F35",
"H 	c #322A2D",
"I 	c #61AA61",
"J 	c #5BBA64",
"K 	c #60C269",
"L 	c #5DBE67",
"M 	c #5D8D54",
"N 	c #2B282C",
"O 	c #2E2D2E",
"P 	c #3F4F3C",
"Q 	c #63B464",
"R 	c #59BA63",
"S 	c #54BD5E",
"T 	c #5EC367",
"U 	c #60A75E",
"V 	c #373F36",
"W 	c #2F2E2F",
"X 	c #485A40",
"Y 	c #5BBA63",
"Z 	c #54B85D",
"` 	c #55B95E",
" .	c #57B960",
"..	c #5FAE62",
"+.	c #414738",
"@.	c #2C2A2D",
"#.	c #404738",
"$.	c #5A9558",
"%.	c #5CAE62",
"&.	c #5EB465",
"*.	c #5DB565",
"=.	c #5DB364",
"-.	c #5BAC61",
";.	c #5B8651",
">.	c #363B34",
",.	c #2D2C2E",
"'.	c #2D2D2E",
").	c #30282C",
"!.	c #3C4437",
"~.	c #405A40",
"{.	c #3F5E42",
"].	c #3F583F",
"^.	c #3B3C34",
"/.	c #2C292D",
"(.	c #2E2E2E",
". . . . . . . . . . . . . . . . . . . . . . . . ",
"+ + + + + + + + + + + + + + + + + + + + + + + + ",
"+ + + + + + + + + + + + + + + + + + + + + + + + ",
"+ + + + + + + + + + + + + + + + + + + + + + + + ",
"+ + + + + + + + + + + + + + + + + + + + + + + + ",
"+ + + + + + + @ # $ % & * = - ; + + + + + + + + ",
"+ + + + + + > , ' ) ! ~ { ] ^ / ( + + + + + + + ",
"+ + + + + _ : < ! [ } } } [ | 1 2 3 + + + + + + ",
"+ + + + 4 5 ) 6 7 7 7 7 7 7 7 8 9 0 a + + + + + ",
"+ + + + b c d e 7 7 7 7 7 7 7 } f g h + + + + + ",
"+ + + + i j k 7 7 7 7 7 7 7 7 7 l m n + + + + + ",
"+ + + + o p q 7 7 7 7 7 7 7 7 7 } ~ r + + + + + ",
"+ + + + s t u 7 7 7 7 7 7 7 7 7 v ~ w + + + + + ",
"+ + + + x y z 7 7 7 7 7 7 7 7 7 A ~ B + + + + + ",
"+ + + + C | D E 7 7 7 7 7 7 7 F f A G + + + + + ",
"+ + + + H I J z 7 7 7 7 7 7 7 K L M N + + + + + ",
"+ + + + O P Q R S T 7 e F 7 [ A U V W + + + + + ",
"+ + + + + + X * Y Z `  .1 1 { ..+.+ + + + + + + ",
"+ + + + + + @.#.$.%.&.*.=.-.;.>.,.+ + + + + + + ",
"+ + + + + + + '.).!.~.{.].^./.(.+ + + + + + + + ",
"+ + + + + + + + + + + + + + + + + + + + + + + + ",
"+ + + + + + + + + + + + + + + + + + + + + + + + ",
"+ + + + + + + + + + + + + + + + + + + + + + + + ",
"+ + + + + + + + + + + + + + + + + + + + + + + + "};
