/* XPM */
static char * maximize_pressed_xpm[] = {
"24 24 107 2",
"  	c None",
". 	c #373737",
"+ 	c #2F2F2F",
"@ 	c #33312F",
"# 	c #604632",
"$ 	c #B0813C",
"% 	c #DAA040",
"& 	c #E0A641",
"* 	c #D39E41",
"= 	c #A57539",
"- 	c #4E3F31",
"; 	c #32312F",
"> 	c #2E2F2F",
", 	c #483F32",
"' 	c #B1803B",
") 	c #E3A941",
"! 	c #DFA541",
"~ 	c #DFA441",
"{ 	c #DEA442",
"] 	c #E2A540",
"^ 	c #9E763A",
"/ 	c #403830",
"( 	c #3B3530",
"_ 	c #C58E3D",
": 	c #DDA341",
"< 	c #E8A844",
"[ 	c #EAAA45",
"} 	c #EBAB45",
"| 	c #E0A441",
"1 	c #DAA240",
"2 	c #B27F3B",
"3 	c #302F2F",
"4 	c #282A2E",
"5 	c #DEA541",
"6 	c #E9AA44",
"7 	c #ECAB45",
"8 	c #E3A743",
"9 	c #E0A741",
"0 	c #8A6336",
"a 	c #2A2C2F",
"b 	c #594332",
"c 	c #E1A841",
"d 	c #E3A643",
"e 	c #EDAB45",
"f 	c #E1A642",
"g 	c #DDA040",
"h 	c #39322F",
"i 	c #9A733A",
"j 	c #DCA340",
"k 	c #DDA441",
"l 	c #785A36",
"m 	c #BD8E3D",
"n 	c #E7A843",
"o 	c #DBA240",
"p 	c #97753A",
"q 	c #BC8F3E",
"r 	c #EDAC45",
"s 	c #E8A944",
"t 	c #97763A",
"u 	c #AA7F3C",
"v 	c #EEAC45",
"w 	c #E7A944",
"x 	c #DCA341",
"y 	c #856637",
"z 	c #775734",
"A 	c #DFA641",
"B 	c #503C31",
"C 	c #2D2B2E",
"D 	c #CF953E",
"E 	c #EBAA45",
"F 	c #E2A742",
"G 	c #B17D3B",
"H 	c #24292E",
"I 	c #2C2D2F",
"J 	c #5C4933",
"K 	c #D79D3F",
"L 	c #E3A742",
"M 	c #C9923E",
"N 	c #453D31",
"O 	c #2E2E2F",
"P 	c #6B5335",
"Q 	c #DEA441",
"R 	c #E4A743",
"S 	c #E7A844",
"T 	c #E5A743",
"U 	c #DBA340",
"V 	c #D0983F",
"W 	c #554432",
"X 	c #282B2E",
"Y 	c #554332",
"Z 	c #B5843C",
"` 	c #CC983F",
" .	c #D39D3F",
"..	c #D49D3F",
"+.	c #D19C3F",
"@.	c #CB963E",
"#.	c #A8763A",
"$.	c #413930",
"%.	c #2B2D2F",
"&.	c #2A2A2E",
"*.	c #4D4132",
"=.	c #655334",
"-.	c #685635",
";.	c #615134",
">.	c #473A30",
",.	c #272A2E",
"'.	c #2D2E2F",
". . . . . . . . . . . . . . . . . . . . . . . . ",
"+ + + + + + + + + + + + + + + + + + + + + + + + ",
"+ + + + + + + + + + + + + + + + + + + + + + + + ",
"+ + + + + + + + + + + + + + + + + + + + + + + + ",
"+ + + + + + + + + + + + + + + + + + + + + + + + ",
"+ + + + + + + + @ # $ % & * = - ; + + + + + + + ",
"+ + + + + + > , ' ) ! ~ { ~ & ] ^ / + + + + + + ",
"+ + + + + + ( _ : < [ } } } [ | 1 2 3 + + + + + ",
"+ + + + + 4 2 5 6 7 7 7 7 7 7 7 8 9 0 a + + + + ",
"+ + + + + b c d e 7 7 7 7 7 7 7 e f g h + + + + ",
"+ + + + + i j [ 7 7 7 7 7 7 7 7 7 8 k l + + + + ",
"+ + + + + m 1 e 7 7 7 7 7 7 7 7 7 n o p + + + + ",
"+ + + + + q : r 7 7 7 7 7 7 7 7 7 s j t + + + + ",
"+ + + + + u k v 7 7 7 7 7 7 7 7 7 w x y + + + + ",
"+ + + + + z k s 7 7 7 7 7 7 7 7 7 8 A B + + + + ",
"+ + + + + C D 5 [ 7 7 7 7 7 7 7 E F G H + + + + ",
"+ + + + + I J K ! s r e 7 e r [ L M N O + + + + ",
"+ + + + + + + P K 1 Q R S T k U V W + + + + + + ",
"+ + + + + + + X Y Z `  ...+.@.#.$.%.+ + + + + + ",
"+ + + + + + + + I &.*.=.-.;.>.,.'.+ + + + + + + ",
"+ + + + + + + + + + + + + + + + + + + + + + + + ",
"+ + + + + + + + + + + + + + + + + + + + + + + + ",
"+ + + + + + + + + + + + + + + + + + + + + + + + ",
"+ + + + + + + + + + + + + + + + + + + + + + + + "};
