/* XPM */
static char * maximize_active_xpm[] = {
"24 24 118 2",
"  	c None",
". 	c #373737",
"+ 	c #2F2F2F",
"@ 	c #333230",
"# 	c #634A36",
"$ 	c #BB8D49",
"% 	c #EAB253",
"& 	c #F2B954",
"* 	c #E4B052",
"= 	c #AF8045",
"- 	c #524134",
"; 	c #323130",
"> 	c #2E2F2F",
", 	c #4A4234",
"' 	c #BE8D48",
") 	c #F5BC56",
"! 	c #EEB653",
"~ 	c #EEB554",
"{ 	c #EFB655",
"] 	c #F0B855",
"^ 	c #F4B754",
"/ 	c #A88145",
"( 	c #413932",
"_ 	c #3C3631",
": 	c #D39D4D",
"< 	c #EBB453",
"[ 	c #F0B351",
"} 	c #F8BA57",
"| 	c #FABC59",
"1 	c #FBBD5A",
"2 	c #FBBC5A",
"3 	c #F9BB59",
"4 	c #F6BA58",
"5 	c #EDB553",
"6 	c #BE8B48",
"7 	c #30302F",
"8 	c #272A2E",
"9 	c #BF8B48",
"0 	c #EEB754",
"a 	c #F3B653",
"b 	c #FCBD5A",
"c 	c #F8BB59",
"d 	c #F2BA55",
"e 	c #916B3F",
"f 	c #292C2E",
"g 	c #5C4635",
"h 	c #F3BB55",
"i 	c #FCBC59",
"j 	c #F2B856",
"k 	c #EDB252",
"l 	c #393230",
"m 	c #A47D45",
"n 	c #ECB554",
"o 	c #F5B957",
"p 	c #EFB754",
"q 	c #7E613C",
"r 	c #CC9E4D",
"s 	c #EBB353",
"t 	c #F9BB58",
"u 	c #EDB554",
"v 	c #A28045",
"w 	c #CB9E4D",
"x 	c #F4B856",
"y 	c #ECB453",
"z 	c #A18045",
"A 	c #B78C48",
"B 	c #FBBC59",
"C 	c #EFB554",
"D 	c #8C6E40",
"E 	c #7C5C3C",
"F 	c #EEB654",
"G 	c #F1B654",
"H 	c #F0B854",
"I 	c #513E33",
"J 	c #2D2A2D",
"K 	c #DEA650",
"L 	c #F7BA57",
"M 	c #F2B955",
"N 	c #BD8948",
"O 	c #23282D",
"P 	c #2C2D2E",
"Q 	c #5F4D37",
"R 	c #E8AE52",
"S 	c #F3B857",
"T 	c #FDBD5A",
"U 	c #FDBD5B",
"V 	c #F3B956",
"W 	c #D8A24E",
"X 	c #473E33",
"Y 	c #2E2E2F",
"Z 	c #70583A",
"` 	c #E8AF52",
" .	c #F1B756",
"..	c #F7BA58",
"+.	c #F8BB58",
"@.	c #F5B958",
"#.	c #DFA950",
"$.	c #584735",
"%.	c #282A2E",
"&.	c #584535",
"*.	c #C19049",
"=.	c #DCA850",
"-.	c #E3AE52",
";.	c #E4AF52",
">.	c #E1AD51",
",.	c #DAA64F",
"'.	c #B38246",
").	c #423A32",
"!.	c #2A2C2E",
"~.	c #2B2D2E",
"{.	c #29292D",
"].	c #4F4335",
"^.	c #6A583A",
"/.	c #6E5B3B",
"(.	c #66563A",
"_.	c #483B33",
":.	c #26292D",
"<.	c #2D2E2F",
". . . . . . . . . . . . . . . . . . . . . . . . ",
"+ + + + + + + + + + + + + + + + + + + + + + + + ",
"+ + + + + + + + + + + + + + + + + + + + + + + + ",
"+ + + + + + + + + + + + + + + + + + + + + + + + ",
"+ + + + + + + + + + + + + + + + + + + + + + + + ",
"+ + + + + + + + @ # $ % & * = - ; > + + + + + + ",
"+ + + + + + > , ' ) ! ~ { { ] ^ / ( + + + + + + ",
"+ + + + + + _ : < [ } | 1 2 3 4 5 6 7 + + + + + ",
"+ + + + + 8 9 0 a b b b b b b b c d e f + + + + ",
"+ + + + + g h ~ i b b b b b b b b j k l + + + + ",
"+ + + + + m n o b b b b b b b b b c p q + + + + ",
"+ + + + + r s t b b b b b b b b b 2 u v + + + + ",
"+ + + + + w s | b b b b b b b b b x y z + + + + ",
"+ + + + + A y t b b b b b b b b B C u D + + + + ",
"+ + + + + E F G b b b b b b b b 1 { H I + + + + ",
"+ + + + + J K 5 L b b b b b b b | M N O + + + + ",
"+ + + + + P Q R u S 3 T b b T U V W X Y + + + + ",
"+ + + + + + + Z ` < <  ...+.@.{ #.$.+ + + + + + ",
"+ + + + + + + %.&.*.=.-.;.>.,.'.).!.+ + + + + + ",
"+ + + + + + + + ~.{.].^./.(._.:.<.+ + + + + + + ",
"+ + + + + + + + + + + + + + + + + + + + + + + + ",
"+ + + + + + + + + + + + + + + + + + + + + + + + ",
"+ + + + + + + + + + + + + + + + + + + + + + + + ",
"+ + + + + + + + + + + + + + + + + + + + + + + + "};
