/* XPM */
static char * close_prelight_xpm[] = {
"24 24 109 2",
"  	c None",
". 	c #373737",
"+ 	c #2F2F2F",
"@ 	c #333230",
"# 	c #634B39",
"$ 	c #BC9355",
"% 	c #EBBA63",
"& 	c #F3C166",
"* 	c #E5B762",
"= 	c #B08550",
"- 	c #524236",
"; 	c #323130",
"> 	c #2E2F2F",
", 	c #4A4236",
"' 	c #BE9255",
") 	c #F6C467",
"! 	c #F1BF66",
"~ 	c #EFBD66",
"{ 	c #EEBD65",
"] 	c #F0C066",
"^ 	c #F5BF66",
"/ 	c #A88650",
"( 	c #413A33",
"_ 	c #3C3631",
": 	c #D4A35B",
"< 	c #EDBC65",
"[ 	c #F5C069",
"} 	c #FAC36A",
"| 	c #FBC36A",
"1 	c #F8C269",
"2 	c #EDBC64",
"3 	c #BF9154",
"4 	c #30302F",
"5 	c #27292D",
"6 	c #EFBF66",
"7 	c #F6C269",
"8 	c #FCC46B",
"9 	c #FDC46B",
"0 	c #F3C266",
"a 	c #916F47",
"b 	c #292B2E",
"c 	c #5C4838",
"d 	c #F4C367",
"e 	c #F1BE67",
"f 	c #F9C26A",
"g 	c #ECBC65",
"h 	c #EEBA63",
"i 	c #3A3230",
"j 	c #A5824E",
"k 	c #F3BF67",
"l 	c #EFBF65",
"m 	c #7F6443",
"n 	c #CCA45B",
"o 	c #F0BE66",
"p 	c #F4C067",
"q 	c #EDBD65",
"r 	c #A28550",
"s 	c #CBA55B",
"t 	c #F3C067",
"u 	c #A18550",
"v 	c #B89254",
"w 	c #F2BE67",
"x 	c #8D7248",
"y 	c #7C5F41",
"z 	c #F5C168",
"A 	c #FBC46B",
"B 	c #F0BD66",
"C 	c #F1C066",
"D 	c #513F35",
"E 	c #2D2A2D",
"F 	c #DFAC5F",
"G 	c #F0BF66",
"H 	c #BD8F53",
"I 	c #23282C",
"J 	c #2C2D2E",
"K 	c #5F4F3B",
"L 	c #E9B662",
"M 	c #F1BE66",
"N 	c #F8C26A",
"O 	c #FDC56C",
"P 	c #FDC56B",
"Q 	c #D8A95D",
"R 	c #473F35",
"S 	c #2E2E2F",
"T 	c #715A3F",
"U 	c #ECBC64",
"V 	c #EFBD65",
"W 	c #E0B060",
"X 	c #584838",
"Y 	c #272A2D",
"Z 	c #584738",
"` 	c #C29656",
" .	c #DDB060",
"..	c #E4B662",
"+.	c #E6B763",
"@.	c #E3B562",
"#.	c #DBAE5F",
"$.	c #B38751",
"%.	c #423B33",
"&.	c #2A2C2E",
"*.	c #2B2D2E",
"=.	c #29282C",
"-.	c #504537",
";.	c #6A5A3F",
">.	c #6E5E41",
",.	c #66583E",
"'.	c #493C34",
").	c #26292D",
"!.	c #2D2E2F",
". . . . . . . . . . . . . . . . . . . . . . . . ",
"+ + + + + + + + + + + + + + + + + + + + + + + + ",
"+ + + + + + + + + + + + + + + + + + + + + + + + ",
"+ + + + + + + + + + + + + + + + + + + + + + + + ",
"+ + + + + + + + + + + + + + + + + + + + + + + + ",
"+ + + + + + + + @ # $ % & * = - ; > + + + + + + ",
"+ + + + + + > , ' ) ! ~ { { ] ^ / ( + + + + + + ",
"+ + + + + + _ : < [ } | } } 1 { 2 3 4 + + + + + ",
"+ + + + + 5 3 6 7 8 8 8 8 8 8 9 ~ 0 a b + + + + ",
"+ + + + + c d e 8 8 8 8 8 8 8 8 f g h i + + + + ",
"+ + + + + j { } 8 8 8 8 8 8 8 8 8 k l m + + + + ",
"+ + + + + n o 9 8 8 8 8 8 8 8 8 8 p q r + + + + ",
"+ + + + + s e 9 8 8 8 8 8 8 8 8 8 t q u + + + + ",
"+ + + + + v { 8 8 8 8 8 8 8 8 8 8 w { x + + + + ",
"+ + + + + y l z 8 8 8 8 8 8 8 8 A B C D + + + + ",
"+ + + + + E F G } 8 8 8 8 8 8 8 1 C H I + + + + ",
"+ + + + + J K L M N 9 O P P O N G Q R S + + + + ",
"+ + + + + + + T L g U 2 { V < q W X + + + + + + ",
"+ + + + + + + Y Z `  ...+.@.#.$.%.&.+ + + + + + ",
"+ + + + + + + + *.=.-.;.>.,.'.).!.+ + + + + + + ",
"+ + + + + + + + + + + + + + + + + + + + + + + + ",
"+ + + + + + + + + + + + + + + + + + + + + + + + ",
"+ + + + + + + + + + + + + + + + + + + + + + + + ",
"+ + + + + + + + + + + + + + + + + + + + + + + + "};
